<?xml version="1.0" standalone="no"?>
<!DOCTYPE svg PUBLIC "-//W3C//DTD SVG 20010904//EN"
 "http://www.w3.org/TR/2001/REC-SVG-20010904/DTD/svg10.dtd">
<svg version="1.0" xmlns="http://www.w3.org/2000/svg"
 width="256.000000pt" height="256.000000pt" viewBox="0 0 256.000000 256.000000"
 preserveAspectRatio="xMidYMid meet">
<metadata>
Created by potrace 1.11, written by Peter Selinger 2001-2013
</metadata>
<g transform="translate(0.000000,256.000000) scale(0.100000,-0.100000)"
fill="#000000" stroke="none">
<path d="M1613 2026 c-87 -28 -177 -107 -212 -186 -37 -85 -43 -159 -39 -531
4 -295 7 -364 21 -414 40 -141 126 -258 224 -306 43 -21 62 -24 173 -24 122 0
128 1 192 33 82 40 144 107 196 211 35 71 37 81 40 190 3 99 1 124 -17 171
-30 79 -86 147 -163 199 l-66 45 34 25 c47 36 102 115 119 175 48 162 -19 312
-173 388 -62 31 -75 33 -177 35 -72 2 -125 -2 -152 -11z m227 -85 c85 -45 124
-163 102 -312 -15 -103 -54 -194 -79 -184 -27 11 -138 18 -167 11 -33 -8 -50
-39 -36 -66 17 -31 79 -45 152 -33 61 11 64 10 86 -16 37 -42 88 -159 107
-245 47 -211 -29 -419 -165 -456 -116 -31 -220 9 -269 105 l-26 50 0 510 0
510 28 47 c38 66 94 98 172 98 40 0 72 -6 95 -19z"/>
<path d="M643 2006 c-87 -28 -177 -107 -212 -186 -37 -85 -43 -159 -39 -531 4
-295 7 -364 21 -414 40 -141 126 -258 224 -306 43 -21 62 -24 173 -24 122 0
128 1 192 33 82 40 144 107 196 211 35 71 37 81 40 190 3 99 1 124 -17 171
-30 79 -86 147 -163 199 l-66 45 34 25 c47 36 102 115 119 175 48 162 -19 312
-173 388 -62 31 -75 33 -177 35 -72 2 -125 -2 -152 -11z m227 -85 c85 -45 124
-163 102 -312 -15 -103 -54 -194 -79 -184 -27 11 -138 18 -167 11 -33 -8 -50
-39 -36 -66 17 -31 79 -45 152 -33 61 11 64 10 86 -16 37 -42 88 -159 107
-245 47 -211 -29 -419 -165 -456 -116 -31 -220 9 -269 105 l-26 50 0 510 0
510 28 47 c38 66 94 98 172 98 40 0 72 -6 95 -19z"/>
</g>
</svg>
